<svg
  width="64"
  height="64"
  viewBox="8 8 44 41"
  xmlns="http://www.w3.org/2000/svg"
>
  <path
    fill="#F4F2ED"
    fill-rule="evenodd"
    d="
      M8,12
      A4,4 0 0 1 12,8
      H48
      A4,4 0 0 1 52,12
      V35
      A4,4 0 0 1 48,39
      H14
      V49
      L24,39
      H12
      A4,4 0 0 1 8,35
      V12
      Z

      M20,24
      m-3.5,0
      a3.5,3.5 0 1,0 7,0
      a3.5,3.5 0 1,0 -7,0

      M30,24
      m-3.5,0
      a3.5,3.5 0 1,0 7,0
      a3.5,3.5 0 1,0 -7,0

      M40,24
      m-3.5,0
      a3.5,3.5 0 1,0 7,0
      a3.5,3.5 0 1,0 -7,0
    "
  />
</svg>
