<?xml version="1.0" encoding="UTF-8"?>
<svg id="Camada_1" data-name="Camada 1" xmlns="http://www.w3.org/2000/svg" xmlns:xlink="http://www.w3.org/1999/xlink" viewBox="0 0 608.9 509.47">
  <defs>
    <style>
      .cls-1 {
        fill: url(#Gradiente_sem_nome_20);
      }
    </style>
    <linearGradient id="Gradiente_sem_nome_20" data-name="Gradiente sem nome 20" x1="45.92" y1="254.74" x2="562.97" y2="254.74" gradientUnits="userSpaceOnUse">
      <stop offset="0" stop-color="#f08152"/>
      <stop offset=".16" stop-color="#e48977"/>
      <stop offset=".52" stop-color="#cb9ecb"/>
      <stop offset=".65" stop-color="#c69ecd"/>
      <stop offset=".79" stop-color="#ba9ed3"/>
      <stop offset=".93" stop-color="#a5a0de"/>
      <stop offset="1" stop-color="#98a1e5"/>
    </linearGradient>
  </defs>
  <path class="cls-1" d="M560.55,253.69c-2.12-4.78-5.62-8.98-8.75-13.13-3.65-4.86-7.43-9.62-11.45-14.19-.08-.09-.16-.15-.24-.21-2.26-2.82-5.3-5.01-8.79-6.44-4.26-1.75-8.89-2.34-13.4-3.12-4.49-.78-8.98-1.51-13.48-2.22-8.48-1.33-16.98-2.57-25.48-3.75,1.75-3.51,3.48-7.03,5.18-10.56,1.76-3.64,3.49-7.28,5.19-10.95.85-1.83,1.69-3.66,2.51-5.5.89-1.99,1.8-3.98,2.4-6.08,1.23-4.34,1.33-8.95.43-13.36-.89-4.34-2.81-8.26-5.37-11.85-5.25-7.38-10.72-14.68-16.76-21.44-4.49-5.03-11.22-7.34-17.7-8.58-2.31-.48-4.68-.74-7.01-1.06-8.6-1.19-17.2-2.36-25.79-3.53-28.97-3.94-57.95-7.84-86.93-11.75-32.3-4.35-64.61-8.69-96.91-13.03-21.04-2.83-42.09-5.65-63.13-8.47-3.32-.45-6.58.14-8.51,3.19-.59.93-1.02,2-1.5,2.99-2.48,5.08-4.95,10.15-7.43,15.23-5.1,10.45-10.39,20.83-15.3,31.37-1.44,3.1-.91,6.33,1.03,8.49h0c2.1,2.77,4.21,5.54,6.31,8.3,3.32,4.37,6.65,8.75,9.97,13.12.16.21.32.42.48.63-5.57-.78-11.14-1.56-16.71-2.35-4.82-.68-11.37-2.71-14.61,2.22-1.93,2.94-3.32,6.38-4.93,9.5-3.2,6.23-6.41,12.47-9.61,18.7-2.88,5.61-5.77,11.22-8.65,16.83-1.96,3.82-4.37,7.97-1.04,11.91.04.07.09.14.14.2.83.98,1.65,1.97,2.48,2.95,1.98,2.36,3.97,4.72,5.95,7.08,2.41,2.87,4.82,5.74,7.23,8.62,2.08,2.47,4.15,4.95,6.23,7.42.26.31.51.62.77.93-8.53-1.12-17.05-2.24-25.58-3.37-2.05-.27-4.2-.76-6.27-.78-6.56-.06-8.91,8.79-11.18,13.59-9.56,20.25-19.13,40.49-28.69,60.74-2.94,6.23-5.92,12.44-8.83,18.69-1.17,2.51-1.15,4.98-.21,6.98.02.15.08.31.19.47,5.96,9.18,11.92,18.36,17.89,27.54.84,1.3,1.31,2.41,2.87,2.67,1.23.2,2.47.32,3.71.48,14.88,1.93,29.76,3.86,44.65,5.78,25.46,3.3,50.93,6.6,76.39,9.9,29.16,3.78,58.32,7.55,87.47,11.33,25.94,3.36,51.88,6.72,77.82,10.08,15.81,2.05,31.63,4.1,47.44,6.15,1.57.2,3.15.41,4.72.61.33.04.66.08.98.13-.03,0,0,0,.26.05,8.57,1.46,17.26,2.23,25.95,2.3,26.22.21,57.13-6.39,69.41-32.4,10.36-21.94,20.7-43.88,31.01-65.84,5.85-12.45,11.69-24.9,17.48-37.38,1.69-3.64,3.39-7.29,5.04-10.95,3.63-8.07,4.33-16.64.67-24.89ZM473.59,135.81c1.55,1.84,3.06,3.7,4.54,5.59,2.65,3.37,5.22,6.81,7.73,10.29,1.07,1.48,2.18,2.95,3.12,4.52,1.1,1.84,1.98,3.78,2.62,5.83,1.25,4,1.6,8.29.85,12.42-.74,4.05-2.62,7.76-4.32,11.47-1.66,3.62-3.36,7.22-5.09,10.81-2.17,4.53-4.38,9.04-6.63,13.53-8.49-1.17-16.98-2.29-25.49-3.33,4.19-9.05,8.38-18.1,12.57-27.15,2.58-5.58,5.16-11.15,7.75-16.73,2.7-5.83,4.99-11.73,4.21-18.34-.56-4.68-2.42-9.09-5.23-12.76,1.2,1.21,2.28,2.55,3.37,3.85ZM157.73,160.63c-3.14-4.13-6.28-8.26-9.42-12.39,1.31.19,2.63.35,3.95.53,7.34.98,14.68,1.96,22.02,2.95,26.08,3.49,52.16,6.98,78.24,10.47,27.97,3.74,55.93,7.48,83.9,11.22,13.88,1.86,27.76,3.69,41.63,5.57,3.06.42,6.89.71,9.31,2.87.6.54.17,0,.51.68.26.51.43,1.06.53,1.63.52,2.89-.68,6.1-2.24,8.48-2.36,3.6-6.62,5.11-10.77,5.19-.27,0-1.62-.06-1.57-.03-.02,0-.05,0-.07-.01-4.34-.5-8.66-1.22-12.98-1.82-22.9-3.22-45.81-6.43-68.71-9.65-29.1-4.08-58.19-8.17-87.29-12.25-13.74-1.93-27.47-3.86-41.21-5.78-1.94-2.55-3.87-5.1-5.81-7.65ZM128.93,249.86c-1.98-2.36-3.97-4.72-5.95-7.08-2.41-2.87-4.82-5.74-7.23-8.62-1.9-2.26-3.8-4.53-5.7-6.79,2.01.39,4.12.51,5.88.76,18.17,2.59,36.33,5.17,54.5,7.76,28.14,4.01,56.28,8.02,84.43,12.02,28.21,4.02,56.42,8.04,84.63,12.05,18.58,2.65,37.16,5.29,55.75,7.94,2.63.38,5.27.75,7.9,1.13.03,0,.07,0,.1,0,.07.02.15.03.23.04,2.49.18,5.89.54,8.03,1.79,4.84,2.82,2.28,9.8-.99,12.73-3.87,3.47-9.32,4.23-14.31,3.6-2.91-.37-5.82-.77-8.72-1.15-14.56-1.92-29.12-3.83-43.69-5.75-22.11-2.91-44.22-5.82-66.33-8.73-24.18-3.18-48.35-6.37-72.53-9.55-21.28-2.8-42.56-5.6-63.84-8.4-3.37-.44-6.74-.89-10.11-1.33-.68-.81-1.35-1.61-2.03-2.42ZM48.69,342.41c.71-1.72,1.6-3.39,2.39-5.07,9.11-19.29,18.22-38.58,27.33-57.86,3.66-7.76,7.33-15.51,10.99-23.27.95-2.01,1.76-4.55,3.87-5.59,1.41-.69,2.7-.51,4.13-.32,9.88,1.3,19.75,2.6,29.63,3.9.89.12,1.77.23,2.66.35.35.39.96.41,1.41.19,17.95,2.36,35.89,4.73,53.84,7.09,23.77,3.13,47.54,6.26,71.31,9.39,23.08,3.04,46.17,6.08,69.25,9.12,17.25,2.27,34.5,4.54,51.75,6.81,4.89.64,9.78,1.29,14.67,1.93,3.27.43,6.55,1.03,9.85.67,7.59-.84,16.39-7.02,14.63-15.72-1.21-5.96-7.75-7.02-12.92-7.4-10.23-1.46-20.45-2.91-30.68-4.37-24.41-3.48-48.81-6.95-73.22-10.43-29.05-4.14-58.1-8.27-87.14-12.41-24.35-3.47-48.7-6.94-73.06-10.41-7.33-1.04-14.65-2.09-21.98-3.13-1.95-.28-3.91-.56-5.86-.84-1.33-.19-2.8-.28-3.96-1-.38-.24-.69-.49-.96-.76-.05-.05-.1-.11-.15-.16-.02-.02-.03-.04-.04-.05-.02-.03-.05-.05-.08-.07-2.72-3.19.89-8.16,2.49-11.28,3.03-5.9,6.06-11.79,9.09-17.69,3.08-5.99,6.15-11.97,9.23-17.96,1.76-3.42,3.62-9.57,8.33-9.28,3.44.21,6.94.97,10.35,1.45,5.5.77,11,1.54,16.49,2.32.31.2.67.27,1.03.15,3.12.44,6.25.88,9.37,1.32,26.97,3.79,53.94,7.57,80.92,11.36,27.09,3.8,54.18,7.61,81.28,11.41,12.77,1.79,25.53,3.9,38.34,5.38,5.36.62,11.41-1.24,14.61-5.77,2.32-3.27,3.9-8,2.56-11.96-1.02-3.02-4.07-4.29-6.97-5.01-4.44-1.09-9.27-1.42-13.8-2.03-21.05-2.82-42.11-5.63-63.16-8.45-28.98-3.88-57.96-7.75-86.93-11.63-21.05-2.82-42.11-5.63-63.16-8.45-4.07-.54-12.9-.22-12.59-6.28.07-1.41.91-2.74,1.51-3.98.98-2.01,1.96-4.03,2.94-6.04,3.03-6.22,6.06-12.43,9.09-18.65,2.82-5.78,5.64-11.56,8.46-17.34.74-1.52,1.46-3.05,2.22-4.55,1.36-2.7,3.48-3.56,6.42-3.2,7.91.98,15.81,2.12,23.72,3.18,28.02,3.76,56.04,7.52,84.05,11.29,32.26,4.34,64.51,8.68,96.77,13.03,22.27,3.01,44.53,6,66.79,9.08,1.33.18,2.67.36,4,.55.03,0,.06.01.1.02.21.03.42.06.64.09.46.07.93.13,1.39.2.63.1,1.26.2,1.89.32,10.46,2.16,18.77,10.85,19.32,21.84.31,6.14-2.15,11.37-4.63,16.74-2.69,5.8-5.37,11.61-8.06,17.41-4.13,8.92-8.26,17.84-12.39,26.76-.42.9.1,1.73,1.06,1.84,9.28,1.12,18.56,2.35,27.82,3.63,0,0,.02,0,.03,0,.93.13,1.87.26,2.8.39,9.01,1.26,18.01,2.58,27,4.02,4.44.71,8.88,1.45,13.31,2.24,4.45.79,8.94,1.52,12.93,3.78,5.72,3.24,8.78,8.95,9.04,15.42.27,6.84-2.69,12.73-5.44,18.75-5.58,12.24-11.21,24.47-16.87,36.67-7.2,15.53-14.46,31.03-21.83,46.48-3.34,6.99-6.7,13.97-10.12,20.92-3.65,7.42-7.63,14.44-13.45,20.41-9.11,9.34-21.16,15.06-33.97,17.15-4.26.69-8.6.98-12.91.88-1.27-.03-2.55-.1-3.82-.21-.36-.03-.72-.07-1.08-.11-.09-.01-.14-.02-.18-.02.04,0,.07,0-.03,0-5.73-.74-11.45-1.55-17.18-2.33-15.12-2.05-30.24-4.09-45.36-6.14-21.19-2.87-42.37-5.74-63.56-8.61-24.08-3.26-48.17-6.52-72.25-9.78-23.31-3.16-46.62-6.31-69.93-9.47-19.36-2.62-38.72-5.24-58.08-7.86-12.1-1.64-24.2-3.28-36.31-4.92-2.25-.3-4.52-.54-6.76-.92-1.47-.25-2.7-.94-3.53-1.91-.16-.24-.32-.49-.48-.73-.04-.06-.08-.11-.12-.15-.64-1.23-.75-2.73-.09-4.32ZM557.36,278.24c-4.07,8.97-8.27,17.89-12.44,26.81-11.46,24.49-22.98,48.96-34.52,73.41-2.48,5.26-4.74,10.7-7.54,15.8-7.3,13.3-20.66,21.14-34.97,24.94-18.67,4.95-38.07,3.91-56.97,1.17-8.29-1.2-16.62-2.15-24.93-3.23-19.96-2.59-39.92-5.17-59.87-7.76-26.17-3.39-52.33-6.78-78.5-10.17-26.75-3.47-53.5-6.93-80.25-10.4-21.76-2.82-43.52-5.64-65.28-8.46-11.19-1.45-22.38-2.9-33.57-4.35l-.76-.1c-5.21-8.03-10.43-16.06-15.64-24.09.27.06.54.11.83.15,8.34,1.17,16.69,2.26,25.03,3.39,17.11,2.32,34.21,4.63,51.32,6.95,22.43,3.04,44.87,6.08,67.3,9.11,24.33,3.29,48.66,6.59,72.99,9.88,22.79,3.09,45.58,6.17,68.37,9.26,17.82,2.41,35.64,4.83,53.45,7.24,9.41,1.27,18.82,2.55,28.24,3.82,10.07,1.36,20.31.68,30.08-2.25,13.48-4.05,25.1-12.46,33.11-24.04,4.49-6.5,7.68-13.87,11.12-20.96,3.63-7.48,7.21-14.99,10.77-22.51,12.3-25.99,24.42-52.07,36.28-78.26,2.74-6.04,4.36-12.58,2.99-19.13,2.2,2.72,4.35,5.49,6.44,8.29,3.13,4.2,6.65,8.43,8.5,13.38,2.82,7.56,1.67,14.94-1.57,22.08Z"/>
</svg>