<?xml version="1.0" encoding="UTF-8"?>
<svg id="Camada_1" data-name="Camada 1" xmlns="http://www.w3.org/2000/svg" viewBox="0 0 375.22 375.11">
  <defs>
    <style>
      .cls-1 {
        fill: none;
        stroke: #000;
        stroke-miterlimit: 10;
      }
    </style>
  </defs>
  <path class="cls-1" d="M43,196.62c.6,9.58,2.15,19.11,4.64,28.44,3.34,12.52,8.39,24.68,15.13,36.1,6.08,10.29,13.54,20,22.39,28.84,8.84,8.85,18.55,16.31,28.84,22.39,11.42,6.75,23.58,11.79,36.1,15.13,9.33,2.5,18.87,4.04,28.45,4.64,6.04.38,12.1.38,18.14,0,9.58-.6,19.11-2.15,28.44-4.64,12.51-3.34,24.67-8.38,36.1-15.13,10.29-6.08,20-13.54,28.84-22.39,8.85-8.85,16.31-18.55,22.39-28.85,6.75-11.42,11.79-23.58,15.13-36.09,2.49-9.33,4.04-18.87,4.64-28.45.37-6.03.37-12.09,0-18.13-.6-9.58-2.15-19.12-4.64-28.45-3.34-12.51-8.38-24.66-15.13-36.09-6.07-10.29-13.54-20-22.39-28.85-8.85-8.85-18.55-16.31-28.85-22.39-11.42-6.74-23.58-11.79-36.09-15.13-9.33-2.48-18.87-4.03-28.44-4.63-6.05-.38-12.11-.38-18.15,0h0c-9.58.6-19.11,2.15-28.44,4.63-12.52,3.35-24.68,8.39-36.1,15.13-10.29,6.08-20,13.54-28.84,22.39-8.85,8.85-16.31,18.55-22.39,28.85-6.75,11.43-11.79,23.58-15.13,36.09-2.49,9.33-4.04,18.86-4.64,28.44-.38,6.05-.38,12.11,0,18.15ZM79.11,181.5c.77-14,4.25-27.88,10.43-40.79,5.13-10.78,12.16-20.88,21.07-29.83l.16-.17.17-.16c8.94-8.91,19.04-15.93,29.81-21.08,12.91-6.17,26.8-9.65,40.81-10.42,4.03-.23,8.07-.23,12.1,0,14,.77,27.89,4.24,40.8,10.42,10.71,5.11,20.76,12.08,29.65,20.91l.33.33h0s.32.33.32.33c8.83,8.9,15.8,18.95,20.91,29.66,6.18,12.91,9.66,26.8,10.43,40.8.23,4.03.23,8.07,0,12.1-.77,14-4.25,27.89-10.43,40.8-5.14,10.78-12.16,20.88-21.07,29.82l-.16.17-.17.16c-8.94,8.91-19.05,15.94-29.82,21.08-12.91,6.18-26.8,9.65-40.8,10.42-4.03.23-8.07.23-12.1,0-14.01-.77-27.89-4.25-40.81-10.42-10.78-5.15-20.88-12.17-29.81-21.08l-.17-.16-.16-.17c-8.91-8.94-15.93-19.05-21.07-29.82-6.18-12.91-9.66-26.8-10.43-40.8-.23-4.03-.23-8.07,0-12.1Z"/>
  <path class="cls-1" d="M117.63,206.3c3.14,11.75,9.28,22.88,18.42,32.14l.33.33.33.33c9.27,9.16,20.39,15.3,32.15,18.43,12.27,3.28,25.24,3.28,37.51,0,11.89-3.17,23.14-9.42,32.47-18.76h0c9.34-9.34,15.59-20.58,18.76-32.48,3.28-12.27,3.28-25.24,0-37.51-3.17-11.9-9.42-23.14-18.76-32.47h0c-9.33-9.34-20.58-15.59-32.47-18.76-12.27-3.28-25.24-3.28-37.51,0-11.63,3.1-22.64,9.15-31.86,18.14l-.62.61-.61.62c-8.99,9.21-15.04,20.22-18.14,31.86-3.28,12.27-3.28,25.24,0,37.51ZM213.23,161.94c14.15,14.14,14.15,37.08,0,51.22-14.15,14.15-37.08,14.15-51.22,0-14.15-14.14-14.15-37.08,0-51.22,14.14-14.15,37.07-14.15,51.22,0Z"/>
</svg>