<?xml version="1.0" encoding="UTF-8"?>
<svg id="Camada_1" data-name="Camada 1" xmlns="http://www.w3.org/2000/svg" xmlns:xlink="http://www.w3.org/1999/xlink" viewBox="0 0 473.87 499.11">
  <defs>
    <style>
      .cls-1 {
        fill: url(#Gradiente_sem_nome_20);
      }

      .cls-2 {
        fill: url(#Gradiente_sem_nome_20-2);
      }
    </style>
    <linearGradient id="Gradiente_sem_nome_20" data-name="Gradiente sem nome 20" x1="50.56" y1="249.56" x2="423.31" y2="249.56" gradientUnits="userSpaceOnUse">
      <stop offset="0" stop-color="#f08152"/>
      <stop offset=".16" stop-color="#e48977"/>
      <stop offset=".52" stop-color="#cb9ecb"/>
      <stop offset=".65" stop-color="#c69ecd"/>
      <stop offset=".79" stop-color="#ba9ed3"/>
      <stop offset=".93" stop-color="#a5a0de"/>
      <stop offset="1" stop-color="#98a1e5"/>
    </linearGradient>
    <linearGradient id="Gradiente_sem_nome_20-2" data-name="Gradiente sem nome 20" x1="120.66" x2="353.21" xlink:href="#Gradiente_sem_nome_20"/>
  </defs>
  <path class="cls-1" d="M236.94,435.93c-49.78,0-96.59-19.39-131.79-54.59-35.2-35.2-54.59-82-54.59-131.79s19.39-96.59,54.59-131.79c35.2-35.2,82-54.59,131.79-54.59s96.59,19.39,131.79,54.59c35.2,35.2,54.59,82.01,54.59,131.79s-19.39,96.59-54.59,131.79c-35.2,35.2-82,54.59-131.79,54.59ZM236.94,79.83c-45.33,0-87.96,17.65-120.01,49.71-32.06,32.06-49.71,74.68-49.71,120.01s17.65,87.96,49.71,120.01c32.06,32.06,74.68,49.71,120.01,49.71s87.96-17.65,120.01-49.71c32.06-32.06,49.71-74.68,49.71-120.01s-17.65-87.96-49.71-120.01c-32.06-32.06-74.68-49.71-120.01-49.71Z"/>
  <path class="cls-2" d="M349.78,226.25c-2.29-2.1-5.23-3.16-8.82-3.16h-30.32c-3.43,0-5.93-3.26-5.02-6.58l5.45-19.98c.37-1.36.56-2.72.56-4.08,0-3.59-1.15-6.47-3.44-8.63-2.29-2.16-5.23-3.25-8.82-3.25h-139.16c-2.36,0-4.42,1.58-5.03,3.86l-5.76,21.52c-.88,3.31,1.61,6.55,5.03,6.55h115.21c2.72,0,4.08,1.3,4.08,3.9,0,1.73-.74,3.28-2.23,4.64-1.49,1.36-3.1,2.04-4.83,2.04h-118.08c-2.35,0-4.42,1.58-5.03,3.85l-5.74,21.34c-.89,3.31,1.6,6.56,5.03,6.56h147.22c2.72,0,4.08,1.3,4.08,3.9,0,1.73-.71,3.28-2.14,4.64-1.42,1.36-3,2.04-4.73,2.04h-149.93c-2.35,0-4.41,1.58-5.03,3.85l-11.49,42.69c-.89,3.31,1.6,6.56,5.03,6.56h184.27c5.94,0,11.54-2.07,16.8-6.22,5.26-4.15,8.63-9.13,10.12-14.95l15.6-58.49c.37-1.36.56-2.72.56-4.08,0-3.59-1.15-6.43-3.44-8.54Z"/>
</svg>