<?xml version="1.0" encoding="UTF-8"?>
<svg id="Camada_1" data-name="Camada 1" xmlns="http://www.w3.org/2000/svg" xmlns:xlink="http://www.w3.org/1999/xlink" viewBox="0 0 509.33 469.47">
  <defs>
    <style>
      .cls-1, .cls-2 {
        fill: none;
      }

      .cls-2 {
        stroke: #000;
        stroke-miterlimit: 10;
      }

      .cls-3 {
        clip-path: url(#clippath);
      }
    </style>
    <clipPath id="clippath">
      <rect class="cls-1" x="630.8" y="23.15" width="335.12" height="439.57"/>
    </clipPath>
  </defs>
  <g class="cls-3">
    <line class="cls-2" x1="961.61" y1="375.71" x2="465.61" y2="318.85"/>
    <line class="cls-2" x1="967.17" y1="402.22" x2="455.69" y2="368.03"/>
    <line class="cls-2" x1="965.91" y1="434.47" x2="455.69" y2="411.04"/>
  </g>
  <g>
    <line class="cls-2" x1="253.36" y1="34.88" x2="253.36" y2="434.59"/>
    <line class="cls-2" x1="453.21" y1="234.74" x2="53.5" y2="234.74"/>
    <g>
      <path class="cls-2" d="M185.52,34.88l27.32,117.13c.68,2.9,1.02,5.87,1.02,8.84v73.88"/>
      <path class="cls-2" d="M119.05,34.88l50.5,113.96c2.2,4.97,3.34,10.34,3.34,15.77v70.12"/>
      <path class="cls-2" d="M53.5,34.88l73.8,112.39c4.17,6.35,6.39,13.78,6.39,21.37v66.1"/>
      <path class="cls-2" d="M53.5,110.57l30.63,35.46c6.11,7.07,9.47,16.1,9.47,25.45v63.26"/>
    </g>
    <g>
      <path class="cls-2" d="M323.81,34.88l-27.32,117.13c-.68,2.9-1.02,5.87-1.02,8.84v73.88"/>
      <path class="cls-2" d="M390.28,34.88l-50.5,113.96c-2.2,4.97-3.34,10.34-3.34,15.77v70.12"/>
      <path class="cls-2" d="M455.83,34.88l-73.8,112.39c-4.17,6.35-6.39,13.78-6.39,21.37v66.1"/>
      <path class="cls-2" d="M455.83,110.57l-30.63,35.46c-6.11,7.07-9.47,16.1-9.47,25.45v63.26"/>
    </g>
    <g>
      <g>
        <path class="cls-2" d="M323.81,434.57l-27.32-117.13c-.68-2.9-1.02-5.87-1.02-8.84v-73.88"/>
        <path class="cls-2" d="M390.28,434.57l-50.5-113.96c-2.2-4.97-3.34-10.34-3.34-15.77v-70.12"/>
        <path class="cls-2" d="M455.83,434.57l-73.8-112.39c-4.17-6.35-6.39-13.78-6.39-21.37v-66.1"/>
        <path class="cls-2" d="M455.83,358.88l-30.63-35.46c-6.11-7.07-9.47-16.1-9.47-25.45v-63.26"/>
      </g>
      <g>
        <path class="cls-2" d="M185.52,434.57l27.32-117.13c.68-2.9,1.02-5.87,1.02-8.84v-73.88"/>
        <path class="cls-2" d="M119.05,434.57l50.5-113.96c2.2-4.97,3.34-10.34,3.34-15.77v-70.12"/>
        <path class="cls-2" d="M53.5,434.57l73.8-112.39c4.17-6.35,6.39-13.78,6.39-21.37v-66.1"/>
        <path class="cls-2" d="M53.5,358.88l30.63-35.46c6.11-7.07,9.47-16.1,9.47-25.45v-63.26"/>
      </g>
    </g>
  </g>
</svg>