<?xml version="1.0" encoding="UTF-8"?>
<svg id="Camada_1" data-name="Camada 1" xmlns="http://www.w3.org/2000/svg" xmlns:xlink="http://www.w3.org/1999/xlink" viewBox="0 0 389.2 483.86">
  <defs>
    <style>
      .cls-1, .cls-2 {
        fill: none;
      }

      .cls-2 {
        stroke: #000;
	stroke-width: 0.3;
        stroke-miterlimit: 10;
      }

      .cls-3 {
        clip-path: url(#clippath);
      }
    </style>
    <clipPath id="clippath">
      <rect class="cls-1" x="27.04" y="22.14" width="335.12" height="439.57"/>
    </clipPath>
  </defs>
  <g class="cls-3">
    <line class="cls-2" x1="158.81" y1="42.2" x2="126.55" y2="8.25"/>
    <line class="cls-2" x1="153.29" y1="50.15" x2="119.42" y2="16.25"/>
    <line class="cls-2" x1="149.57" y1="60.35" x2="102.85" y2="20.24"/>
    <line class="cls-2" x1="151.64" y1="77.17" x2="81.07" y2="22.14"/>
    <line class="cls-2" x1="150.47" y1="90.86" x2="52.26" y2="22.14"/>
    <line class="cls-2" x1="151.95" y1="107.26" x2="15.74" y2="20.24"/>
    <line class="cls-2" x1="158.81" y1="125.61" x2="11.6" y2="44.37"/>
    <line class="cls-2" x1="162.94" y1="144.99" x2="-1.9" y2="58.98"/>
    <line class="cls-2" x1="176.45" y1="168.62" x2="-17.82" y2="77.17"/>
    <line class="cls-2" x1="185.94" y1="188.81" x2="-25.68" y2="101.98"/>
    <line class="cls-2" x1="197.32" y1="211.62" x2="-27.75" y2="129.68"/>
    <line class="cls-2" x1="209.67" y1="233.27" x2="-34.36" y2="157.8"/>
    <line class="cls-2" x1="233.05" y1="260.15" x2="-42.63" y2="186.74"/>
    <line class="cls-2" x1="255.46" y1="286.19" x2="-42.63" y2="217.96"/>
    <line class="cls-2" x1="280.54" y1="314.3" x2="-44.49" y2="252.08"/>
    <line class="cls-2" x1="315.04" y1="343.04" x2="-66.41" y2="286.19"/>
    <line class="cls-2" x1="357.85" y1="374.7" x2="-138.15" y2="317.85"/>
    <line class="cls-2" x1="363.42" y1="401.21" x2="-148.07" y2="367.03"/>
    <line class="cls-2" x1="362.16" y1="433.46" x2="-148.07" y2="410.03"/>
  </g>
</svg>