<?xml version="1.0" encoding="UTF-8"?>
<svg id="Camada_1" data-name="Camada 1" xmlns="http://www.w3.org/2000/svg" viewBox="0 0 375.22 375.11">
  <defs>
    <style>
      .cls-1 {
        fill: none;
        stroke: #000;
        stroke-miterlimit: 10;
      }
    </style>
  </defs>
  <g>
    <path class="cls-1" d="M187.61,126.99c0-33.45-27.11-60.56-60.56-60.56-33.42,0-60.56,27.15-60.56,60.56,0,33.45,27.11,60.56,60.56,60.56v-46.63c0-7.69,6.24-13.93,13.93-13.93h46.63Z"/>
    <path class="cls-1" d="M248.17,187.55c33.45,0,60.56-27.11,60.56-60.56,0-33.42-27.15-60.56-60.56-60.56-33.45,0-60.56,27.11-60.56,60.56h46.63c7.69,0,13.93,6.24,13.93,13.93v46.63Z"/>
    <path class="cls-1" d="M187.61,248.11c0,33.45,27.11,60.56,60.56,60.56,33.42,0,60.56-27.15,60.56-60.56,0-33.45-27.11-60.56-60.56-60.56v46.63c0,7.69-6.24,13.93-13.93,13.93h-46.63Z"/>
    <path class="cls-1" d="M127.05,187.55c-33.45,0-60.56,27.11-60.56,60.56,0,33.42,27.15,60.56,60.56,60.56,33.45,0,60.56-27.11,60.56-60.56h-46.63c-7.69,0-13.93-6.24-13.93-13.93v-46.63Z"/>
  </g>
  <path class="cls-1" d="M187.61,119.73h0c0,37.46-30.37,67.82-67.82,67.82h0c37.46,0,67.82,30.37,67.82,67.82h0c0-37.46,30.37-67.82,67.82-67.82h0c-37.46,0-67.82-30.37-67.82-67.82Z"/>
</svg>