<svg xmlns="http://www.w3.org/2000/svg" id="baltha-studio-text" data-name="Baltha Studio Tcon" viewBox="34.63 26.98 591.98 215.06">
    <g>
        <path class="cls-1" d="M110.06,100.8c-.95-.06-1.7-.84-1.7-1.8s.73-1.73,1.68-1.8c20.16-1.53,28.46-15.7,28.46-30.68,0-19.24-12.18-35.27-45.74-35.27h-56.33c-1,0-1.8.81-1.8,1.8v141.73c0,1,.81,1.8,1.8,1.8h56.33c39.75,0,50.01-19.88,50.01-42.32,0-18.79-8.98-32.08-32.71-33.48ZM65.61,61.91c0-1,.81-1.8,1.8-1.8h23.63c11.33,0,16.46,2.14,16.46,12.18,0,10.69-5.13,12.82-16.46,12.82h-23.63c-1,0-1.8-.81-1.8-1.8v-21.4ZM92.76,144.53h-25.34c-1,0-1.8-.81-1.8-1.8v-26.96c0-1,.81-1.8,1.8-1.8h25.34c12.82,0,19.02,2.14,19.02,15.6s-6.2,14.96-19.02,14.96Z"/>
        <path class="cls-1" d="M267.67,147.74h-9.22c-1,0-1.8-.81-1.8-1.8v-79.32c0-1-.81-1.8-1.8-1.8h-27.38c-1,0-1.8.81-1.8,1.8v6.54c0,1.67-2.07,2.43-3.17,1.17-7.35-8.42-16.86-11.65-27.82-11.65-32.27,0-47.66,26.72-47.66,58.13s15.39,57.92,47.66,57.92c10.96,0,20.47-3.23,27.82-11.65,1.1-1.26,3.17-.5,3.17,1.17h0c0,4.61,3.74,8.34,8.34,8.34h33.67c1,0,1.8-.81,1.8-1.8v-25.25c0-1-.81-1.8-1.8-1.8ZM201.94,149.88c-16.24,0-23.94-9.19-23.94-29.07s7.69-29.28,23.94-29.28,23.72,9.19,23.72,29.28-7.69,29.07-23.72,29.07Z"/>
        <rect class="cls-1" x="277.95" y="26.98" width="30.99" height="149.61" rx="1.8" ry="1.8"/>
        <path class="cls-1" d="M376.53,64.81h-26.32c-1,0-1.8-.81-1.8-1.8V28.78c0-1-.81-1.8-1.8-1.8h-27.38c-1,0-1.8.81-1.8,1.8v124.02c0,13.14,10.65,23.79,23.79,23.79h35.32c1,0,1.8-.81,1.8-1.8v-25.25c0-1-.81-1.8-1.8-1.8h-26.32c-1,0-1.8-.81-1.8-1.8v-50.47c0-1,.81-1.8,1.8-1.8h26.32c1,0,1.8-.81,1.8-1.8v-25.25c0-1-.81-1.8-1.8-1.8Z"/>
        <path class="cls-1" d="M468.81,64.81h-49.21c-1,0-1.8-.81-1.8-1.8V28.78c0-1-.81-1.8-1.8-1.8h-27.38c-1,0-1.8.81-1.8,1.8v146c0,1,.81,1.8,1.8,1.8h27.38c1,0,1.8-.81,1.8-1.8v-79.32c0-1,.81-1.8,1.8-1.8h40.21c1,0,1.8.81,1.8,1.8v79.32c0,1,.81,1.8,1.8,1.8h27.38c1,0,1.8-.81,1.8-1.8v-86.19c0-13.14-10.65-23.79-23.79-23.79Z"/>
        <path class="cls-1" d="M617.51,147.74h-9.22c-1,0-1.8-.81-1.8-1.8v-79.32c0-1-.81-1.8-1.8-1.8h-27.38c-1,0-1.8.81-1.8,1.8v6.54c0,1.67-2.07,2.43-3.17,1.17-7.35-8.42-16.86-11.65-27.82-11.65-32.27,0-47.66,26.72-47.66,58.13s15.39,57.92,47.66,57.92c10.96,0,20.47-3.23,27.82-11.65,1.1-1.26,3.17-.5,3.17,1.17h0c0,4.61,3.74,8.34,8.34,8.34h33.67c1,0,1.8-.81,1.8-1.8v-25.25c0-1-.81-1.8-1.8-1.8ZM551.77,149.88c-16.24,0-23.94-9.19-23.94-29.07s7.69-29.28,23.94-29.28,23.72,9.19,23.72,29.28-7.69,29.07-23.72,29.07Z"/>
    </g>
    <g>
        <path class="cls-1" d="M621.44,72.63s0,0,0,0c.12-.06.23-.12.33-.2.54-.41.81-1,.81-1.77s-.28-1.42-.83-1.88c-.55-.46-1.31-.69-2.27-.69h-3.38v8.51h1.72v-3.38h1.41c.46,0,.8.07,1.02.22.22.15.38.46.48.94l.47,2.22h1.75l-.66-2.6c-.15-.67-.43-1.13-.86-1.38ZM620.53,71.71c-.28.24-.67.36-1.17.36h-1.53v-2.66h1.56c.48,0,.86.12,1.14.36.28.24.42.57.42.99s-.14.71-.42.95Z"/>
        <path class="cls-1" d="M625.66,68.72c-.64-1.08-1.51-1.94-2.63-2.56-1.12-.63-2.39-.94-3.83-.94s-2.72.31-3.83.94c-1.12.63-1.99,1.49-2.63,2.58-.64,1.09-.95,2.34-.95,3.74s.32,2.64.95,3.74c.64,1.09,1.51,1.96,2.63,2.6,1.12.64,2.39.95,3.83.95s2.72-.32,3.83-.95c1.11-.64,1.99-1.51,2.63-2.61.64-1.1.95-2.36.95-3.75s-.32-2.64-.95-3.72ZM624.43,75.57c-.52.92-1.24,1.64-2.14,2.17-.91.53-1.93.8-3.08.8s-2.17-.26-3.08-.78c-.91-.52-1.62-1.24-2.14-2.16-.52-.92-.78-1.96-.78-3.13s.26-2.17.78-3.08c.52-.91,1.24-1.63,2.14-2.16.91-.53,1.93-.8,3.08-.8s2.17.27,3.08.8c.91.53,1.62,1.25,2.14,2.14.52.9.78,1.92.78,3.06s-.26,2.21-.78,3.13Z"/>
    </g>
    <g>
        <path class="cls-1" d="M478.35,225.91c-1.28-.63-2.75-.95-4.42-.95h-10.75c-.51,0-.99-.13-1.43-.39-.44-.26-.66-.73-.66-1.43s.23-1.13.68-1.39c.45-.26.92-.39,1.41-.39h18.05v-6.76h-17.74c-2.6,0-4.72.73-6.36,2.2-1.64,1.47-2.45,3.61-2.45,6.41s.82,4.86,2.45,6.32c1.64,1.46,3.75,2.18,6.36,2.18h10.44c.31,0,.62.05.93.14.31.09.58.27.81.54.23.27.35.65.35,1.14,0,.64-.23,1.1-.68,1.35-.45.26-.92.39-1.41.39h-18.47v6.76h18.47c2.58,0,4.64-.73,6.18-2.18,1.54-1.45,2.32-3.59,2.32-6.4,0-1.88-.36-3.45-1.08-4.72-.72-1.26-1.72-2.21-2.99-2.84Z"/>
        <path class="cls-1" d="M493.42,234.83c-.48-.3-.72-.86-.72-1.68v-11.79h18.28v-6.76h-18.28v-5.41h-6.42v24.27c0,2.81.77,4.94,2.32,6.4,1.55,1.46,3.61,2.18,6.18,2.18h16.97v-6.76h-16.58c-.69,0-1.28-.15-1.76-.44Z"/>
        <path class="cls-1" d="M537.69,233.15c0,.82-.24,1.39-.72,1.68-.48.3-1.06.44-1.76.44h-10.71c-.69,0-1.28-.15-1.76-.44-.48-.3-.72-.86-.72-1.68v-18.55h-6.42v18.86c0,2.81.77,4.94,2.32,6.4,1.55,1.46,3.61,2.18,6.18,2.18h11.48c2.58,0,4.64-.73,6.18-2.18,1.55-1.45,2.32-3.59,2.32-6.4v-18.86h-6.42v18.55Z"/>
        <path class="cls-1" d="M570.27,214.6h-13.8c-2.58,0-4.64.73-6.18,2.18-1.54,1.46-2.32,3.59-2.32,6.4v10.28c0,2.81.77,4.94,2.32,6.4,1.55,1.46,3.61,2.18,6.18,2.18h11.71c2.58,0,4.64-.73,6.18-2.18,1.54-1.45,2.32-3.59,2.32-6.4v-27.79h-6.41v8.93ZM569.55,234.83c-.48.3-1.06.44-1.76.44h-10.94c-.69,0-1.28-.15-1.76-.44-.48-.3-.72-.86-.72-1.68v-9.66c0-.82.24-1.39.72-1.68.48-.3,1.06-.44,1.76-.44h13.41v11.79c0,.82-.24,1.39-.72,1.68Z"/>
        <rect class="cls-1" x="580.55" y="214.6" width="6.42" height="27.4"/>
        <rect class="cls-1" x="580.55" y="205.67" width="6.42" height="5.57"/>
        <path class="cls-1" d="M618.23,218.43c-.72-1.29-1.72-2.25-2.99-2.88-1.28-.63-2.75-.95-4.43-.95h-11.48c-2.58,0-4.64.73-6.18,2.18-1.54,1.46-2.32,3.59-2.32,6.4v10.28c0,2.81.77,4.94,2.32,6.4,1.55,1.46,3.61,2.18,6.18,2.18h11.48c2.58,0,4.64-.73,6.18-2.18,1.55-1.45,2.32-3.59,2.32-6.4v-10.28c0-1.88-.36-3.46-1.08-4.75ZM612.89,233.15c0,.82-.24,1.39-.72,1.68-.48.3-1.06.44-1.76.44h-10.71c-.69,0-1.28-.15-1.76-.44-.48-.3-.72-.86-.72-1.68v-9.66c0-.82.24-1.39.72-1.68.48-.3,1.06-.44,1.76-.44h10.71c.7,0,1.28.15,1.76.44.48.3.72.86.72,1.68v9.66Z"/>
    </g>
</svg>