<svg xmlns="http://www.w3.org/2000/svg" id="logo-icon-home" data-name="Logo Icon Home" viewBox="38.49 71.02 252.38 149.62">
    <defs>
        <linearGradient id="gradient" x1="0%" y1="0%" x2="100%" y2="0%">
            <stop offset="0%" stop-color="#EF8253" />
            <stop offset="50%" stop-color="#C79FCC" />
            <stop offset="100%" stop-color="#99A1E6" />
        </linearGradient>
    </defs>
    <g>
        <path d="M264.17,78.43s0,0,0,0c.12-.06.23-.12.33-.2.54-.41.81-1,.81-1.77s-.28-1.42-.83-1.88c-.55-.46-1.31-.69-2.27-.69h-3.38v8.51h1.72v-3.38h1.41c.46,0,.8.07,1.02.22.22.15.38.46.48.94l.47,2.22h1.75l-.66-2.6c-.15-.67-.43-1.13-.86-1.38ZM263.27,77.51c-.28.24-.67.36-1.17.36h-1.53v-2.66h1.56c.48,0,.86.12,1.14.36.28.24.42.57.42.99s-.14.71-.42.95Z" 
	/>
        <path d="M268.4,74.52c-.64-1.08-1.51-1.94-2.63-2.56-1.12-.63-2.39-.94-3.83-.94s-2.72.31-3.83.94c-1.12.63-1.99,1.49-2.63,2.58-.64,1.09-.95,2.34-.95,3.74s.32,2.64.95,3.74c.64,1.09,1.51,1.96,2.63,2.6,1.12.64,2.39.95,3.83.95s2.72-.32,3.83-.95c1.11-.64,1.99-1.51,2.63-2.61.64-1.1.95-2.36.95-3.75s-.32-2.64-.95-3.72ZM267.16,81.37c-.52.92-1.24,1.64-2.14,2.17-.91.53-1.93.8-3.08.8s-2.17-.26-3.08-.78c-.91-.52-1.62-1.24-2.14-2.16-.52-.92-.78-1.96-.78-3.13s.26-2.17.78-3.08c.52-.91,1.24-1.63,2.14-2.16.91-.53,1.93-.8,3.08-.8s2.17.27,3.08.8c.91.53,1.62,1.25,2.14,2.14.52.9.78,1.92.78,3.06s-.26,2.21-.78,3.13Z"
	/>
    </g>
    <path d="M287.17,120.55c-2.49-2.28-5.67-3.42-9.56-3.42h-33.69c-3.32,0-5.73-3.15-4.85-6.35l6.12-22.44c.4-1.48.6-2.95.6-4.43,0-3.89-1.24-7.01-3.73-9.36-2.49-2.35-5.67-3.52-9.56-3.52H81.11c-2.28,0-4.27,1.53-4.86,3.73l-6.57,24.57c-.85,3.19,1.55,6.33,4.86,6.33h125.74c2.95,0,4.43,1.41,4.43,4.23,0,1.88-.81,3.56-2.42,5.03-1.61,1.48-3.36,2.22-5.24,2.22H68.52c-2.28,0-4.27,1.53-4.86,3.72l-6.56,24.37c-.86,3.2,1.55,6.34,4.86,6.34h160.46c2.95,0,4.43,1.41,4.43,4.23,0,1.88-.77,3.56-2.32,5.03-1.54,1.48-3.26,2.22-5.13,2.22H56.33c-2.27,0-4.27,1.53-4.86,3.72l-12.8,47.53c-.86,3.2,1.55,6.34,4.86,6.34h200.64c6.44,0,12.52-2.25,18.22-6.75,5.7-4.5,9.36-9.9,10.97-16.21l16.91-63.43c.4-1.48.6-2.95.6-4.43,0-3.89-1.24-6.98-3.73-9.26Z"
    />
</svg>
