<?xml version="1.0" encoding="UTF-8"?>
<svg id="Camada_1" data-name="Camada 1" xmlns="http://www.w3.org/2000/svg" viewBox="0 0 521.78 482.39">
  <defs>
    <style>
      .cls-1 {
        fill: #c8ffce;
      }
    </style>
  </defs>
  <path class="cls-1" d="M44.96,382.29l13.11-49.15c.57-2.13,2.5-3.62,4.71-3.62h110.3c2.2,0,4.13-1.48,4.7-3.6l13.95-51.68c.57-2.13,2.5-3.6,4.7-3.6h48.8c3.21,0,5.54,3.04,4.7,6.14l-14.24,52.75-14.74,55.27c-.57,2.13-2.5,3.62-4.71,3.62H49.67c-3.2,0-5.53-3.03-4.71-6.13ZM108,146.73l13.27-49.15c.57-2.13,2.5-3.6,4.7-3.6h166.57c3.21,0,5.54,3.04,4.7,6.14l-14.24,52.75-14.74,55.27c-.57,2.13-2.5,3.62-4.71,3.62h-48.81c-3.2,0-5.53-3.03-4.71-6.13l12.44-46.64c.82-3.09-1.51-6.13-4.71-6.13h-105.07c-3.21,0-5.54-3.04-4.7-6.14ZM188.77,270.44h-48.41c-3.2,0-5.53-3.04-4.7-6.13l13.09-48.75c.57-2.13,2.5-3.61,4.7-3.61h48.41c3.2,0,5.53,3.04,4.7,6.13l-13.09,48.75c-.57,2.13-2.5,3.61-4.7,3.61Z"/>
  <path class="cls-1" d="M319.93,329.53h46.19c3.2,0,5.53,3.03,4.71,6.13l-13.11,49.15c-.57,2.13-2.5,3.62-4.71,3.62h-107.69c-3.2,0-5.53-3.03-4.71-6.13l14.07-52.76,15.9-58.89,15.7-58.89,15.7-58.89,14.93-55.29c.57-2.13,2.5-3.6,4.7-3.6h107.68c3.21,0,5.54,3.04,4.7,6.14l-13.27,49.15c-.57,2.13-2.5,3.6-4.7,3.6h-51.41c-2.21,0-4.14,1.48-4.71,3.62l-14.74,55.27-15.7,58.89-14.24,52.75c-.84,3.1,1.5,6.14,4.7,6.14ZM447.05,270.44l-14.74,55.08c-.57,2.13-2.5,3.61-4.71,3.61h-48.59c-3.21,0-5.54-3.05-4.7-6.14l14.24-52.55,15.7-58.49,14.55-55.06c.56-2.14,2.5-3.63,4.71-3.63h48.59c3.2,0,5.53,3.04,4.71,6.13l-14.06,52.56-15.7,58.49Z"/>
</svg>